<svg width="640" height="400" viewBox="0 0 640 400" fill="none" xmlns="http://www.w3.org/2000/svg">
<rect width="640" height="400" fill="#B5D2FB"/>
<path opacity="0.36" d="M0 99.321C0 99.321 209.455 88.5594 379.636 191.664C549.818 294.769 640 293.158 640 293.158V400H0V99.321Z" fill="#71A3F8"/>
<path d="M335.285 270.929C340.499 265.836 336.962 252.805 346.119 251.76C354.786 250.774 355.806 262.73 354.506 269.086C354.283 270.131 353.668 272.481 352.13 271.422C351.319 270.856 352.018 267.49 352.032 266.706C352.102 263.804 352.256 257.289 348.691 256.418C344.735 255.46 343.854 260.771 343.449 263.47C342.915 267.808 341.269 271.918 338.682 275.369C337.558 276.852 336.093 278.018 334.422 278.759C332.751 279.501 330.927 279.796 329.118 279.615C327.309 279.434 325.572 278.785 324.068 277.726C322.564 276.667 321.34 275.233 320.509 273.555C316.455 266.068 321.194 256.142 326.1 250.411C328.533 247.596 331.692 245.651 334.222 242.894C337.007 239.879 339.399 236.498 341.338 232.839C345.336 225.075 347.447 214.265 342.806 206.255C333.985 191.034 310.22 199.232 300.56 209.027C298.617 211 296.017 213.685 296.255 216.775C296.66 222.115 301.93 220.011 304.768 218.401C312.065 214.294 319.237 207.053 328.044 207.184C335.732 207.3 341.338 214.004 339.311 221.999C337.55 229.022 331.021 234.203 325.541 238.135C318.58 243.045 311.292 247.439 303.734 251.281C299.162 253.661 289.209 256.259 287.517 262.135C286.301 266.314 289.279 269.391 293.109 268.259C297.303 267.069 300.309 263.151 304.614 262.309C306.012 262.019 313.393 262.933 309.815 265.212C309.018 265.734 307.396 265.023 306.501 265.066C305.394 265.131 304.308 265.412 303.3 265.894C301.239 266.988 299.245 268.214 297.331 269.565C294.116 271.466 289.558 273.367 285.952 271.48C282.583 269.71 281.157 264.747 282.345 261.134C284.875 253.415 295.765 249.453 301.986 245.913C309.948 241.663 317.515 236.659 324.591 230.967C327.303 228.674 330.336 225.975 331.818 222.594C333.3 219.213 332.251 214.962 328.044 215.237C320.355 215.76 314.246 224.509 308.067 228.427C300.267 233.361 291.054 234.377 284.889 226.207C279.382 218.952 282.094 210.246 286.567 203.266C286.833 202.86 288.692 200.712 288.105 200.059C287.518 199.406 284.512 201.989 284.246 202.192C280.886 204.538 278.265 207.859 276.711 211.74C271.525 226.41 294.06 246.769 276.711 258.087C270.407 262.208 260.929 262.368 256.805 255.054C252.178 246.856 257.336 238.28 258.818 230.009C259.461 226.425 257.504 221.303 253.226 223.175C252.22 223.595 250.696 225.714 249.606 225.032C247.886 223.973 250.486 221.869 251.297 221.259C254.177 219.126 257.742 219.054 259.978 222.246C262.578 225.932 261.893 231.591 261.376 235.828C260.551 243.083 257.182 254.967 268.03 255.156C277.215 255.315 277.69 245.825 274.922 239.122C271.763 231.315 266.171 224.64 265.332 216.006C264.494 207.373 268.897 200.422 274.698 194.734C275.355 194.095 278.249 191.948 277.145 191.135C276.04 190.323 273.328 191.962 272.518 192.412C268.603 194.545 265.444 198.376 261.796 200.988C255.589 205.428 245.426 210.333 239.107 203.339C237.811 201.934 236.876 200.214 236.387 198.336C235.898 196.459 235.872 194.484 236.31 192.593C236.749 190.702 237.638 188.956 238.896 187.514C240.154 186.073 241.741 184.983 243.511 184.344C247.106 183.314 250.769 182.558 254.47 182.081C256.889 181.645 263.962 180.717 264.256 177.132C264.549 173.548 259.978 174.521 258.496 173.186C257.224 172.039 257.797 170.98 259.028 170.559C260.915 169.906 263.221 171.212 264.41 172.01C272.797 178.453 261.516 183.967 256.483 185.462C253.058 186.492 235.878 188.683 242.35 196.461C247.942 203.222 257.881 194.705 261.921 190.076C263.892 187.484 266.16 185.15 268.673 183.125C272.951 180.122 279.759 179.904 279.675 179.019C279.535 177.568 275.873 177.742 273.594 175.943C271.643 174.469 269.946 172.664 268.576 170.603C266.99 168.227 266.033 165.46 265.803 162.58C265.572 159.699 266.075 156.806 267.261 154.191C270.896 145.354 278.445 138.781 286.134 133.877C288.021 132.658 296.59 128.812 292.326 125.576C288.804 122.907 281.325 127.129 277.676 128.174C275.425 128.812 272.923 129.625 270.686 128.551C269.806 128.116 265.402 124.082 267.387 122.95C268.422 122.37 270.994 125.185 271.917 125.504C274.461 126.404 277.508 124.691 279.899 123.864C284.875 122.152 291.711 119.032 296.534 122.732C300.728 125.997 298.659 130.742 295.472 133.775C291.809 137.258 287.168 139.579 283.422 142.931C279.83 146.011 276.734 149.665 274.251 153.756C273.582 154.892 273.146 156.158 272.967 157.476C272.789 158.794 272.874 160.136 273.216 161.419C273.558 162.702 274.15 163.898 274.956 164.934C275.762 165.969 276.764 166.822 277.9 167.439C279.856 168.536 281.979 169.278 284.176 169.631C287.378 170.255 288.37 170.762 288.37 167.338C288.184 161.35 289.193 155.387 291.334 149.824C293.752 144.194 298.631 140.145 303.58 137.04C323.151 124.807 356.142 130.916 358.463 158.559C358.602 160.199 357.931 165.553 359.329 166.105C361.119 166.816 366.599 163.971 368.164 163.202C372.358 161.2 377.796 156.977 375.154 151.594C372.512 146.211 364.753 146.675 360.168 144.803C355.583 142.931 352.437 137.548 355.457 132.687C356.068 131.816 356.857 131.097 357.769 130.583C358.681 130.068 359.691 129.771 360.727 129.712C362.419 129.465 368.122 129.132 369.199 130.887C370.932 133.789 365.997 132.614 364.865 132.527C362.908 132.367 359.092 131.947 357.875 134.065C354.311 140.247 366.263 141.32 368.905 141.799C373.756 142.626 380.522 144.194 383.22 149.055C386.239 154.453 384.171 161.374 380.522 165.727C376.524 170.516 371.561 172.678 366.403 175.609C363.761 177.06 365.662 176.929 367.801 177.742C370.545 178.889 373.051 180.574 375.182 182.705C379.501 186.68 382.437 192.238 387.05 195.764C390.475 198.434 398.415 199.682 397.018 192.543C395.857 186.608 388.812 186.405 385.834 182.008C382.13 176.436 387.512 172.75 391.845 170.661C393.243 169.964 397.744 166.598 399.24 167.527C401.058 168.644 396.347 170.429 395.508 170.893C393.143 171.864 390.951 173.237 389.021 174.956C386.407 177.698 388.448 180.078 390.909 181.877C394.781 184.707 401.477 186.535 403.406 191.483C403.897 192.805 404.088 194.226 403.963 195.636C403.837 197.046 403.399 198.407 402.683 199.612C401.967 200.818 400.993 201.835 399.835 202.585C398.678 203.334 397.369 203.796 396.011 203.933C390.419 204.427 384.73 201.583 380.256 198.289C378.858 197.201 369.562 188.407 367.507 190.279C367.507 191.571 370.625 193.863 371.393 194.893C372.96 196.935 374.184 199.235 375.014 201.699C376.761 206.981 375.951 212.016 374.119 217.124C371.687 223.929 360.406 240.558 369.995 246.043C373.742 248.176 377.251 245.564 377.922 241.53C378.816 236.219 375.224 230.749 377.111 225.438C377.6 224.06 379.404 221.593 380.955 221.462C383.751 221.245 381.277 223.465 380.41 224.756C376.859 230.067 381.417 234.086 382.982 239.267C384.38 243.62 384.115 248.771 380.186 251.557C376.426 254.184 370.121 254.459 365.955 253.008C354.856 249.018 360.364 233.724 363.16 225.873C364.767 221.375 366.571 216.006 365.732 211.131C365.291 208.782 364.214 206.613 362.628 204.877C361.524 203.585 358.183 199.479 356.156 200.364C355.205 200.77 358.449 211.464 358.602 213.423C358.99 219.02 357.81 224.614 355.205 229.53C350.145 239.542 342.302 246.609 334.041 253.603C330.112 256.912 326.226 261.569 326.436 267.214C326.369 268.274 326.613 269.33 327.138 270.242C327.662 271.155 328.441 271.88 329.372 272.322C330.979 272.946 334.46 272.83 335.285 270.929Z" fill="#D8DDE1"/>
</svg>
